<svg width="171" height="56" viewBox="0 0 171 56" fill="none" xmlns="http://www.w3.org/2000/svg"><g><g><path d="M41.641 18.6392C41.641 16.8276 43.0516 15.3779 44.9066 15.3779C46.7606 15.3779 48.2122 16.8276 48.2122 18.6392V52.335C48.2122 54.1867 46.7606 55.5963 44.9066 55.5963C43.0926 55.5963 41.641 54.1876 41.641 52.335V18.6392Z" fill="#009E81"></path><path d="M0 36.4334V36.3125C0 25.6847 8.14298 16.6666 19.6317 16.6666C25.356 16.6666 29.1452 18.0353 32.612 20.5318C33.2567 21.0147 33.9825 21.9405 33.9825 23.2292C33.9825 25.0408 32.5309 26.5305 30.6769 26.5305C29.7899 26.5305 29.1452 26.1685 28.6206 25.7656C26.1619 23.994 23.501 22.7863 19.3894 22.7863C12.3757 22.7863 7.05383 28.946 7.05383 36.1924V36.3134C7.05383 44.1237 12.2135 49.8805 19.9941 49.8805C23.582 49.8805 26.8467 48.7537 29.1852 47.0221V39.8966H21.6469C20.0342 39.8966 18.6636 38.6489 18.6636 36.9982C18.6636 35.3876 20.0342 34.0598 21.6469 34.0598H32.2486C34.1437 34.0598 35.6344 35.5095 35.6344 37.4411V47.586C35.6344 49.4785 34.8685 50.8472 33.2968 51.8131C30.0312 53.9866 25.4762 55.9592 19.7519 55.9592C7.86068 55.9592 0 47.505 0 36.4334Z" fill="#009E81"></path><path fill-rule="evenodd" clip-rule="evenodd" d="M53.3319 41.0234V41.1443C53.3319 49.2757 59.781 55.9592 68.5287 56.0001C77.3974 56.0001 83.9277 49.1966 83.9277 41.0643V40.9434C83.9277 32.7302 77.4776 26.0476 68.6498 26.0476C59.8621 26.0476 53.3319 32.8111 53.3319 41.0234ZM77.3574 41.0234V41.1443C77.3574 46.0953 73.9707 50.2024 68.6107 50.2434C63.491 50.2434 59.863 46.0563 59.863 41.0643V40.9434C59.863 35.9505 63.2488 31.8043 68.5296 31.8043C73.7294 31.8043 77.3574 35.9914 77.3574 41.0234Z" fill="#009E81"></path><path d="M87.1901 28.7051C87.1901 26.8526 88.6417 25.4429 90.4967 25.4429C92.3917 25.4429 93.8023 26.8526 93.8023 28.7051V50.3644C95.8184 50.3644 103.438 50.3635 103.438 50.3635C105.171 50.3635 106.502 51.7323 106.502 53.4229C106.502 55.1536 105.212 56.0001 103.479 56.0001H90.4967C88.6417 56.0001 87.1901 54.5904 87.1901 52.6997V28.7051Z" fill="#009E81"></path><path fill-rule="evenodd" clip-rule="evenodd" d="M109.162 41.0234V41.1443C109.162 49.2757 115.611 55.9592 124.359 56.0001C133.228 56.0001 139.758 49.1966 139.758 41.0643V40.9434C139.758 32.7302 133.308 26.0476 124.48 26.0476C115.693 26.0476 109.162 32.8111 109.162 41.0234ZM133.187 41.0234V41.1443C133.187 46.0953 129.801 50.2024 124.441 50.2434C119.321 50.2434 115.693 46.0563 115.693 41.0643V40.9434C115.693 35.9505 119.079 31.8043 124.36 31.8043C129.56 31.8043 133.187 35.9914 133.187 41.0234Z" fill="#009E81"></path></g><circle cx="168.012" cy="3.00001" r="2.98801" fill="#FFC244"></circle><path d="M144.35 28.7051C144.35 26.8526 145.801 25.4429 147.656 25.4429C149.552 25.4429 150.962 26.8526 150.962 28.7051V49.8405L157.049 43.5201C157.776 42.7945 158.543 42.1898 159.674 42.1898C161.367 42.1898 162.657 43.3985 162.657 45.0082C162.657 45.9741 162.253 46.5788 161.569 47.3044L155.845 53.1821L162.576 53.1421C164.35 53.1421 165.721 54.5118 165.721 56.2424V56.3634C165.721 58.134 164.35 59.5037 162.576 59.5037H155.804L161.569 65.3414C162.253 66.108 162.657 66.7518 162.657 67.6377C162.657 69.2474 161.326 70.497 159.674 70.497C158.584 70.497 157.776 69.8923 157.09 69.1258L150.962 62.8054V83.9817C150.962 85.8342 149.552 87.2439 147.656 87.2439C145.801 87.2439 144.35 85.8342 144.35 83.9817V28.7051Z" fill="#009E81"></path></g></svg>